# xmcd CD database file
#
# Track frame offsets:
#	150
#	11430
#	27152
#	42447
#	54960
#	75222
#	88815
#	114210
#	132945
#	157285
#	171825
#
# Disc length: 2587 seconds
#
# Revision: 0
# Processed by: cddbd v1.5.2PL0 Copyright (c) Steve Scherf et al.
# Submitted via: CDex 2.11
#
DISCID=7d0a190b
DTITLE=Soul Cake and the Horns Deelite - Soul Survivor
DYEAR=2001
DGENRE=Blues
TTITLE0=Hold on (I'm coming)
TTITLE1=Hand to handle
TTITLE2=Kiss
TTITLE3=Nutbush City Limits
TTITLE4=The Letter
TTITLE5=Sittin'
TTITLE6=Superstition
TTITLE7=Treat her right
TTITLE8=Son of a Preacher Man
TTITLE9=Think
TTITLE10=Grapevine
EXTD=YEAR: 2001
EXTT0=
EXTT1=
EXTT2=
EXTT3=
EXTT4=
EXTT5=
EXTT6=
EXTT7=
EXTT8=
EXTT9=
EXTT10=
PLAYORDER=
